<svg xmlns="http://www.w3.org/2000/svg" viewBox="0 0 11.67 36.68"><defs><style>.cls-1{fill:#333;}</style></defs><g id="Layer_2" data-name="Layer 2"><g id="Design"><path class="cls-1" d="M10,15.66a2.67,2.67,0,0,1-.76-1.91V7.54h-2v6.21a4.68,4.68,0,0,0,1.35,3.32,4,4,0,0,1,1.13,2.85V34.68H2V19.92a4,4,0,0,1,1.14-2.86,4.67,4.67,0,0,0,1.34-3.31V7.54h-2v6.21a2.62,2.62,0,0,1-.75,1.89A5.92,5.92,0,0,0,0,19.92V36.68H11.67V19.92A5.92,5.92,0,0,0,10,15.66Z"/><rect class="cls-1" x="2.24" y="3.67" width="7.21" height="2"/><rect class="cls-1" x="2.24" width="7.21" height="2"/></g></g></svg>