<svg xmlns="http://www.w3.org/2000/svg" viewBox="0 0 25.11 36.59"><defs><style>.cls-1{fill:#333;}</style></defs><g id="Layer_2" data-name="Layer 2"><g id="Design"><rect class="cls-1" x="6.4" y="30.87" width="12.34" height="2"/><rect class="cls-1" x="10.15" y="34.59" width="4.81" height="2"/><path class="cls-1" d="M12.55,0A12.6,12.6,0,0,0,0,12.62a12.88,12.88,0,0,0,3.92,9.15,8.6,8.6,0,0,1,2.74,6.52V29h2v-.64a10.61,10.61,0,0,0-3.36-8A10.8,10.8,0,0,1,2,12.62a10.56,10.56,0,1,1,21.11,0,10.84,10.84,0,0,1-3.29,7.69,10.6,10.6,0,0,0-3.37,8V29h2v-.69a8.63,8.63,0,0,1,2.75-6.52,12.84,12.84,0,0,0,3.91-9.13A12.6,12.6,0,0,0,12.55,0Z"/><rect class="cls-1" x="11.81" y="8.23" width="1.5" height="3.41"/><rect class="cls-1" x="6.04" y="11.06" width="1.5" height="2.99" transform="translate(-6.89 8.48) rotate(-45)"/><rect class="cls-1" x="16.86" y="11.79" width="2.93" height="1.5" transform="translate(-3.5 16.63) rotate(-45)"/></g></g></svg>