<svg xmlns="http://www.w3.org/2000/svg" viewBox="0 0 25.83 46.33"><defs><style>.cls-1{fill:#333;}</style></defs><g id="Layer_2" data-name="Layer 2"><g id="Design"><path class="cls-1" d="M18.47,22.41c.93-.93,1.12-2.74,1.12-4.09V16.65H17.93c-1.36,0-3.16.2-4.09,1.13a3.27,3.27,0,0,0,0,4.63,3.17,3.17,0,0,0,2.31,1A3.1,3.1,0,0,0,18.47,22.41Zm-3.22-3.22a4.36,4.36,0,0,1,2.33-.53A4.15,4.15,0,0,1,17,21a1.18,1.18,0,0,1-.86.33,1.22,1.22,0,0,1-.9-.37A1.28,1.28,0,0,1,15.25,19.19Z"/><path class="cls-1" d="M9.09,22.18H7.62v1.46A4.54,4.54,0,0,0,8.5,26.7a2.58,2.58,0,0,0,3.64,0,2.51,2.51,0,0,0,.76-1.82,2.4,2.4,0,0,0-.76-1.83A4.52,4.52,0,0,0,9.09,22.18Zm1.64,3.1a.58.58,0,0,1-.82,0,2.51,2.51,0,0,1-.26-1.09,2.44,2.44,0,0,1,1.13.31.52.52,0,0,1,.12.37A.54.54,0,0,1,10.73,25.28Z"/><rect class="cls-1" x="11.97" y="28.06" width="2" height="10.72"/><rect class="cls-1" x="6.87" y="40.65" width="12.19" height="2"/><rect class="cls-1" x="10.58" y="44.33" width="4.75" height="2"/><path class="cls-1" d="M13,10.14A12.46,12.46,0,0,0,.53,22.62a12.7,12.7,0,0,0,3.88,9.05,8.51,8.51,0,0,1,2.7,6.44v.66h2v-.63a10.49,10.49,0,0,0-3.32-7.92,10.68,10.68,0,0,1-3.26-7.6,10.42,10.42,0,1,1,20.84,0,10.7,10.7,0,0,1-3.24,7.59,10.49,10.49,0,0,0-3.34,7.9v.66h2v-.68a8.54,8.54,0,0,1,2.71-6.43,12.69,12.69,0,0,0,3.87-9A12.46,12.46,0,0,0,13,10.14Z"/><rect class="cls-1" x="11.9" width="2" height="4.97"/><rect class="cls-1" x="1.35" y="5.47" width="2" height="4.66" transform="translate(-4.82 3.95) rotate(-45)"/><rect class="cls-1" x="21.15" y="6.73" width="4.66" height="2" transform="translate(1.41 18.86) rotate(-45)"/></g></g></svg>