<svg xmlns="http://www.w3.org/2000/svg" viewBox="0 0 36.73 33.6"><defs><style>.cls-1{fill:#333;}</style></defs><g id="Layer_2" data-name="Layer 2"><g id="Design"><path class="cls-1" d="M9.74,21.11A2.84,2.84,0,0,0,8.5,23a2.79,2.79,0,0,0,.55,2.16,5,5,0,0,0,1.45,1.16c.57.34.88.53,1,1a1.45,1.45,0,0,1,.09.36l0,.49,2-.16-.05-.53a3.35,3.35,0,0,0-.21-.87,3.85,3.85,0,0,0-1.88-2,3.08,3.08,0,0,1-.92-.69.78.78,0,0,1-.13-.59.86.86,0,0,1,.34-.57,3.15,3.15,0,0,0,1.38-2A3.12,3.12,0,0,0,8.46,17.1a6,6,0,0,0-.82.26l-.31.11a.64.64,0,0,1-.41,0,.63.63,0,0,1-.34-.34.92.92,0,0,1,.07-.67,3,3,0,0,0,.08-2.09,3.47,3.47,0,0,0-.29-.61A3.76,3.76,0,0,0,5,12.36L4.19,14.2a2.2,2.2,0,0,1,.52.56,1.73,1.73,0,0,1,.12.25.91.91,0,0,1,0,.67,2.82,2.82,0,0,0-.08,2.22A2.61,2.61,0,0,0,8,19.37l.38-.14a3.8,3.8,0,0,1,.54-.18,1.13,1.13,0,0,1,.55,0,1.16,1.16,0,0,1,.65.48,1.1,1.1,0,0,1,.15.85A1.14,1.14,0,0,1,9.74,21.11Z"/><path class="cls-1" d="M16.76,7.81a6.42,6.42,0,0,0,.75-.1A3.52,3.52,0,0,0,20,5.58a4.6,4.6,0,0,0,.26-1l-2-.27a2.41,2.41,0,0,1-.13.57,1.49,1.49,0,0,1-1.07.89,3.24,3.24,0,0,1-.52.07,3.2,3.2,0,0,0-1.82.62,3,3,0,0,0-1.12,2.31,2.85,2.85,0,0,0,1.65,2.61,3.52,3.52,0,0,0,1.54.23,2.29,2.29,0,0,1,.7.06.41.41,0,0,1,.22.27.46.46,0,0,1,0,.33.91.91,0,0,1-.33.24,3,3,0,0,1-.44.16,4.42,4.42,0,0,0-1,.45,4.22,4.22,0,0,0-1.21,1.17,4.5,4.5,0,0,0-.59,3.82,4.24,4.24,0,0,0,4.07,3h.43c.72,0,1.21,0,1.46.26a1.81,1.81,0,0,1,.29.89l0,.24a3.55,3.55,0,0,0,1.45,2.94,2.84,2.84,0,0,0,1.45.39,3.33,3.33,0,0,0,1.81-.55,7.37,7.37,0,0,0,2.72-3.92c.17-.43.35-.88.56-1.34l-1.81-.83c-.23.49-.42,1-.6,1.42-.56,1.36-1,2.35-2,3a1.14,1.14,0,0,1-1.14.12c-.33-.19-.4-.67-.49-1.44l0-.26a3.54,3.54,0,0,0-.81-2,3.63,3.63,0,0,0-3-.88H18.2A2.23,2.23,0,0,1,16,17.51a2.5,2.5,0,0,1,.33-2.11,2.23,2.23,0,0,1,.64-.62,2.72,2.72,0,0,1,.56-.22c.23-.08.45-.15.67-.25a2.83,2.83,0,0,0,1.18-1,2.41,2.41,0,0,0,.23-2A2.45,2.45,0,0,0,18.29,9.8a3.79,3.79,0,0,0-1.5-.21,2.08,2.08,0,0,1-.71-.06.89.89,0,0,1-.45-.78A1,1,0,0,1,16,8,1.43,1.43,0,0,1,16.76,7.81Z"/><path class="cls-1" d="M35.24,5.9a4.14,4.14,0,0,0-1.51-.84,4.07,4.07,0,0,0-3.29.27A5.69,5.69,0,0,0,29.09,6.4a6.37,6.37,0,0,0-1.3-1.07,4.09,4.09,0,0,0-3.3-.27A4.14,4.14,0,0,0,23,5.9,4.6,4.6,0,0,0,21.5,9.09a5.18,5.18,0,0,0,1.32,3.6,27.25,27.25,0,0,0,3.55,3.5c.76.65,1.45,1.2,2.13,1.73l.65.43.61-.46c.65-.5,1.33-1.05,2.09-1.7a27.25,27.25,0,0,0,3.55-3.5,5.18,5.18,0,0,0,1.32-3.6A4.6,4.6,0,0,0,35.24,5.9Zm-1.39,5.53a25.45,25.45,0,0,1-3.3,3.24c-.51.43-1,.82-1.44,1.19-.45-.36-.93-.75-1.44-1.19a26,26,0,0,1-3.29-3.23A3.22,3.22,0,0,1,23.5,9.2a2.54,2.54,0,0,1,.8-1.79A2.25,2.25,0,0,1,25.1,7a2.63,2.63,0,0,1,.77-.12,2,2,0,0,1,.94.23,8.66,8.66,0,0,1,1.54,1.47l.77.91.76-.92a5.83,5.83,0,0,1,1.53-1.46A2.15,2.15,0,0,1,33.13,7a2.2,2.2,0,0,1,.79.45,2.54,2.54,0,0,1,.8,1.79A3.21,3.21,0,0,1,33.85,11.43Z"/><path class="cls-1" d="M16.8,31.6A14.8,14.8,0,0,1,16.8,2a14.6,14.6,0,0,1,6.74,1.62l.91-1.78A16.63,16.63,0,0,0,16.8,0,16.8,16.8,0,1,0,33.52,18.4l-2-.19A14.73,14.73,0,0,1,16.8,31.6Z"/></g></g></svg>