<svg xmlns="http://www.w3.org/2000/svg" viewBox="0 0 36.8 36.8"><defs><style>.cls-1{fill:#333;}</style></defs><g id="Layer_2" data-name="Layer 2"><g id="Design"><path class="cls-1" d="M12,12.62l-2-2a17.83,17.83,0,0,1,6.75-.87l.09-2c-1.82-.07-6.36,0-9.07,1.79l-1,.68L10.62,14Z"/><path class="cls-1" d="M27.19,19.92a18.08,18.08,0,0,1-.88,6.82l-2-2-1.41,1.42L26.74,30l.67-1c1.84-2.79,1.86-7.32,1.78-9.14Z"/><polygon class="cls-1" points="17.25 25.39 11.37 19.57 25.27 5.67 23.85 4.26 8.54 19.57 17.26 28.2 32.57 12.98 31.16 11.56 17.25 25.39"/><path class="cls-1" d="M36.73,1,36.66.2,35.84.11c-2.14-.24-6.44-.2-9,1.46l-1,.68L34.58,11l.68-1C37,7.32,36.86,2.83,36.73,1Zm-2.6,6.7-5-5A15.58,15.58,0,0,1,34.78,2,16.4,16.4,0,0,1,34.13,7.72Z"/><path class="cls-1" d="M23.2,11.55a2.1,2.1,0,1,0,2.1-2.1A2.08,2.08,0,0,0,23.2,11.55Zm2.1-.6a.6.6,0,1,1-.6.6A.57.57,0,0,1,25.3,11Z"/><rect class="cls-1" x="9.74" y="20.85" width="2" height="10.4" transform="translate(-15.27 15.23) rotate(-45)"/><rect class="cls-1" x="3.17" y="30.98" width="3.38" height="2" transform="translate(-21.19 12.81) rotate(-45)"/><rect class="cls-1" x="11.12" y="33.27" width="2" height="3.53"/><rect class="cls-1" y="23.74" width="3.53" height="2"/></g></g></svg>